<?xml version="1.0" encoding="UTF-8" standalone="no"?>
<!-- Uploaded to: SVG Repo, www.svgrepo.com, Generator: SVG Repo Mixer Tools -->

<svg
   fill="#000000"
   width="19.460609"
   height="16"
   viewBox="0 0 0.58381828 0.48"
   version="1.1"
   id="svg4"
   sodipodi:docname="add-profile-svgrepo-com.svg"
   inkscape:version="1.1.2 (0a00cf5339, 2022-02-04)"
   xmlns:inkscape="http://www.inkscape.org/namespaces/inkscape"
   xmlns:sodipodi="http://sodipodi.sourceforge.net/DTD/sodipodi-0.dtd"
   xmlns="http://www.w3.org/2000/svg"
   xmlns:svg="http://www.w3.org/2000/svg">
  <defs
     id="defs8" />
  <sodipodi:namedview
     id="namedview6"
     pagecolor="#ffffff"
     bordercolor="#666666"
     borderopacity="1.0"
     inkscape:pageshadow="2"
     inkscape:pageopacity="0.0"
     inkscape:pagecheckerboard="0"
     showgrid="false"
     inkscape:zoom="1.0875"
     inkscape:cx="366.89655"
     inkscape:cy="302.52874"
     inkscape:window-width="1920"
     inkscape:window-height="1056"
     inkscape:window-x="0"
     inkscape:window-y="0"
     inkscape:window-maximized="1"
     inkscape:current-layer="svg4" />
  <path
     d="m 0.0265372,0.48000003 h 0.2122976 a 0.0265372,0.02653721 0 0 0 0,-0.053074 H 0.0549585 A 0.18605229,0.18605237 0 0 1 0.2388348,0.26770233 0.13385362,0.13385368 0 1 0 0.1492187,0.23222213 0.23910014,0.23910025 0 0 0 0,0.45346283 0.0265372,0.02653721 0 0 0 0.0265372,0.48000003 Z m 0.2122976,-0.4245953 a 0.07961159,0.07961163 0 1 1 -0.079612,0.079612 0.07961159,0.07961163 0 0 1 0.079612,-0.079612 z m 0.3449835,0.2919092 a 0.0265372,0.02653721 0 0 1 -0.026537,0.026537 h -0.079612 v 0.079612 a 0.0265372,0.02653721 0 0 1 -0.053074,0 v -0.079612 h -0.079612 a 0.02653749,0.0265375 0 0 1 0,-0.053075 h 0.079612 v -0.079612 a 0.0265372,0.02653721 0 0 1 0.053074,0 v 0.079612 h 0.079612 a 0.0265372,0.02653721 0 0 1 0.026537,0.026537 z"
     id="path2"
     style="stroke-width:0.0265372;fill:#f0f8ff;fill-opacity:1" />
</svg>
