<?xml version="1.0" encoding="UTF-8" standalone="no"?>
<svg
   id="Layer_1"
   height="15.999998"
   viewBox="0 0 0.75 0.74999991"
   width="16"
   data-name="Layer 1"
   version="1.1"
   sodipodi:docname="bell-ring.svg"
   inkscape:version="1.1.2 (0a00cf5339, 2022-02-04)"
   xmlns:inkscape="http://www.inkscape.org/namespaces/inkscape"
   xmlns:sodipodi="http://sodipodi.sourceforge.net/DTD/sodipodi-0.dtd"
   xmlns="http://www.w3.org/2000/svg"
   xmlns:svg="http://www.w3.org/2000/svg">
  <defs
     id="defs7" />
  <sodipodi:namedview
     id="namedview5"
     pagecolor="#ffffff"
     bordercolor="#666666"
     borderopacity="1.0"
     inkscape:pageshadow="2"
     inkscape:pageopacity="0.0"
     inkscape:pagecheckerboard="0"
     showgrid="false"
     inkscape:zoom="1.6992188"
     inkscape:cx="134.76782"
     inkscape:cy="245.70115"
     inkscape:window-width="954"
     inkscape:window-height="1053"
     inkscape:window-x="0"
     inkscape:window-y="0"
     inkscape:window-maximized="0"
     inkscape:current-layer="Layer_1" />
  <path
     d="M 0.00685726,0.13447826 A 0.04687712,0.04676449 0 0 1 0.02248296,0.07019268 L 0.12461259,0.00784003 a 0.04687712,0.04676449 0 1 1 0.048846,0.07974904 L 0.07129771,0.14994172 A 0.04687712,0.04676449 0 0 1 0.00685729,0.13435356 Z M 0.72773365,0.5615939 a 0.04687712,0.04676449 0 0 0 -0.0645028,0.0152452 l -0.0625028,0.10104246 a 0.04687712,0.04676449 0 1 0 0.0797536,0.0491339 L 0.74298435,0.625973 A 0.04687712,0.04676449 0 0 0 0.72773359,0.56156271 Z M 0.65107401,0.4836531 0.53856885,0.66650223 A 0.17272658,0.17231154 0 0 1 0.41087561,0.74790363 0.18469586,0.18425207 0 0 1 0.3901559,0.74911963 0.17188278,0.17146978 0 0 1 0.28433856,0.71223789 0.13072467,0.13041057 0 0 1 0.09820513,0.52917052 L 0.05151551,0.48240604 A 0.17313285,0.17271683 0 0 1 0.00151326,0.33933788 0.17135151,0.17093978 0 0 1 0.08236066,0.21294907 L 0.25383719,0.10735486 a 0.28070022,0.28002574 0 0 1 0.31488926,0.008324 L 0.6074783,0.07698904 A 0.04689215,0.04677947 0 0 1 0.6737938,0.1431452 L 0.6350734,0.1817727 A 0.28295032,0.28227043 0 0 1 0.6510741,0.48374657 Z M 0.53856883,0.21220084 A 0.18810227,0.18765029 0 0 0 0.30358944,0.18654273 l -0.17188278,0.1059995 a 0.0783473,0.07815905 0 0 0 -0.03687667,0.0577697 0.07997236,0.07978021 0 0 0 0.02318855,0.0660938 l 0.21600978,0.2159896 A 0.08009738,0.07990492 0 0 0 0.45875268,0.61764893 L 0.57041402,0.43626508 A 0.18828978,0.18783735 0 0 0 0.53860009,0.21229437 Z"
     id="path2"
     style="fill:#f0f8ff;fill-opacity:1;stroke-width:0.0312139" />
</svg>
