<?xml version="1.0" encoding="UTF-8" standalone="no"?>
<!-- Uploaded to: SVG Repo, www.svgrepo.com, Generator: SVG Repo Mixer Tools -->

<svg
   fill="#000000"
   width="13.598761"
   height="16.000118"
   viewBox="0 0 0.40796282 0.48000355"
   data-name="Layer 1"
   version="1.1"
   id="svg4"
   sodipodi:docname="character.svg"
   inkscape:version="1.1.2 (0a00cf5339, 2022-02-04)"
   xmlns:inkscape="http://www.inkscape.org/namespaces/inkscape"
   xmlns:sodipodi="http://sodipodi.sourceforge.net/DTD/sodipodi-0.dtd"
   xmlns="http://www.w3.org/2000/svg"
   xmlns:svg="http://www.w3.org/2000/svg">
  <defs
     id="defs8" />
  <sodipodi:namedview
     id="namedview6"
     pagecolor="#ffffff"
     bordercolor="#666666"
     borderopacity="1.0"
     inkscape:pageshadow="2"
     inkscape:pageopacity="0.0"
     inkscape:pagecheckerboard="0"
     showgrid="false"
     inkscape:zoom="1.0875"
     inkscape:cx="283.21839"
     inkscape:cy="333.7931"
     inkscape:window-width="1920"
     inkscape:window-height="1056"
     inkscape:window-x="0"
     inkscape:window-y="0"
     inkscape:window-maximized="1"
     inkscape:current-layer="svg4" />
  <path
     d="m 0.23350431,1.2815977e-4 a 0.17691796,0.17691796 0 0 0 -0.1308593,0.0507240002 0.17854904,0.17854904 0 0 0 -0.05465,0.1291718 v 7.264e-4 l -0.045698,0.097031 a 0.02398367,0.02398367 0 0 0 0.021701,0.034226 h 0.023997 v 0.047994 a 0.04804917,0.04804917 0 0 0 0.047994,0.047994 h 0.023997 v 0.047994 a 0.02399711,0.02399711 0 0 0 0.047994,0 v -0.047994 a 0.02399711,0.02399711 0 0 0 0,-0.047994 h -0.071991 v -0.071991 a 0.02399087,0.02399087 0 0 0 -0.023997,-0.023997 h -0.010171 l 0.032152,-0.068253 a 0.02376578,0.02376578 0 0 0 0.00227,-0.011143 c 0,-2.462e-4 -2.343e-4,-0.00435 -2.578e-4,-0.00459 a 0.13090207,0.13090207 0 0 1 0.040074,-0.094723 0.13262914,0.13262914 0 0 1 0.095988,-0.037202 0.13642116,0.13642116 0 0 1 0.1279065,0.1384638 l -0.047198,0.1800954 a 0.0242414,0.0242414 0 0 0 1.406e-4,0.012807 l 0.023997,0.083181 a 0.02403262,0.02403262 0 0 0 0.02306,0.017354 0.02442354,0.02442354 0 0 0 0.00666,-9.491e-4 0.02400743,0.02400743 0 0 0 0.016404,-0.029715 l -0.022169,-0.076795 0.046307,-0.1743656 a 0.0247523,0.0247523 0 0 0 7.967e-4,-0.00615 v -0.00546 A 0.18472974,0.18472974 0 0 0 0.23350431,1.2815977e-4 Z"
     id="path2"
     style="stroke-width:0.0239971" />
</svg>
