<?xml version="1.0" encoding="UTF-8" standalone="no"?>
<!-- Uploaded to: SVG Repo, www.svgrepo.com, Generator: SVG Repo Mixer Tools -->

<svg
   width="15.851041"
   height="15.999988"
   viewBox="0 0 0.47553123 0.47999963"
   fill="none"
   version="1.1"
   id="svg4"
   sodipodi:docname="game.svg"
   inkscape:version="1.1.2 (0a00cf5339, 2022-02-04)"
   xmlns:inkscape="http://www.inkscape.org/namespaces/inkscape"
   xmlns:sodipodi="http://sodipodi.sourceforge.net/DTD/sodipodi-0.dtd"
   xmlns="http://www.w3.org/2000/svg"
   xmlns:svg="http://www.w3.org/2000/svg">
  <defs
     id="defs8" />
  <sodipodi:namedview
     id="namedview6"
     pagecolor="#ffffff"
     bordercolor="#666666"
     borderopacity="1.0"
     inkscape:pageshadow="2"
     inkscape:pageopacity="0.0"
     inkscape:pagecheckerboard="0"
     showgrid="false"
     inkscape:zoom="1.0875"
     inkscape:cx="392.64368"
     inkscape:cy="365.97701"
     inkscape:window-width="1920"
     inkscape:window-height="1056"
     inkscape:window-x="0"
     inkscape:window-y="0"
     inkscape:window-maximized="1"
     inkscape:current-layer="svg4" />
  <path
     fill-rule="evenodd"
     clip-rule="evenodd"
     d="m 0.21445908,0.00278354 c 0.006479,-0.00373 0.0144567,-0.00371 0.0209195,5.22e-5 0.0175878,0.010234 0.0338576,0.018878 0.0492083,0.027034 v 2e-7 c 0.003703,0.00197 0.007353,0.00391 0.0109537,0.00583 0.0182604,0.00976 0.0354931,0.019301 0.0507143,0.030042 0.0316205,0.022315 0.0544804,0.049834 0.0659877,0.095869 0.0113214,0.045288 0.005245,0.085694 -0.002667,0.1233152 -0.001485,0.00706 -0.003018,0.013974 -0.004533,0.020798 v 6.3e-6 l -2.08e-6,4.2e-6 c -0.005224,0.023562 -0.0102122,0.046056 -0.0121799,0.069825 h 0.007712 0.00899 0.00245 6.3709e-4 1.6293e-4 4.178e-5 8.35e-6 4.18e-6 v 0 c 0.00899,0 0.0169737,0.00575 0.0198166,0.014283 l 0.0161256,0.048381 h 0.005834 c 0.0115365,0 0.0208881,0.00935 0.0208881,0.020888 0,0.011537 -0.009352,0.020888 -0.0208881,0.020888 H 0.43375525 0.09954489 0.07865675 c -0.0115363,0 -0.0208881,-0.00935 -0.0208881,-0.020888 0,-0.011537 0.009352,-0.020888 0.0208881,-0.020888 h 0.005833 l 0.0161271,-0.048381 c 0.002843,-0.00853 0.0108255,-0.014283 0.0198164,-0.014283 h 0.0276342 l 0.0302107,-0.075527 -0.1092274,0.028744 c -0.0191229,0.00503 -0.0391546,-0.00403 -0.0479976,-0.021717 L 0.00441521,0.27378644 c -0.008379,-0.016759 -0.004618997,-0.037133 0.009469,-0.04972 0.016882,-0.015083 0.0486977,-0.043304 0.0722777,-0.06298 0.0101036,-0.00843 0.0175713,-0.018187 0.0245425,-0.028981 0.002796,-0.00433 0.005375,-0.0086 0.008088,-0.013096 7.4111e-4,-0.00123 0.001492,-0.00247 0.00226,-0.00374 0.003469,-0.00572 0.007223,-0.01178 0.0113907,-0.017604 0.008443,-0.0118 0.0191697,-0.02349 0.0349446,-0.031666 0.0106118,-0.0055 0.0226736,-0.00898 0.0365973,-0.010398 v -0.034712 c 0,-0.00748 0.003994,-0.01438 0.0104735,-0.018107 z m 0.0100054,0.2850982 c 7.7913e-4,0.00385 4.8251e-4,0.00796 -0.001084,0.011885 l -0.0303187,0.075795 h 0.0454752 0.11244291 c 0.002095,-0.028821 0.00808,-0.055665 0.0135794,-0.080342 0.001437,-0.00645 0.002841,-0.012744 0.004134,-0.018891 0.007597,-0.036111 0.0119647,-0.068812 0.00302,-0.1045834 -0.008754,-0.035022 -0.0249363,-0.054501 -0.0495467,-0.071868 -0.0128942,-0.0091 -0.0280736,-0.017575 -0.0463257,-0.027336 -0.003428,-0.00183 -0.006958,-0.00371 -0.0105861,-0.00564 v -8e-7 l -4.18e-6,-1.9e-6 -1.044e-5,-5.8e-6 c -0.00622,-0.0033 -0.0127251,-0.00676 -0.0194782,-0.010409 v 0.019393 c 0,0.00568 -0.002312,0.011112 -0.006404,0.01505 -0.00409,0.00394 -0.009609,0.00604 -0.0152838,0.00582 -0.0182416,-6.983e-4 -0.0296342,0.00228 -0.037462,0.00634 -0.007826,0.00406 -0.0139324,0.010135 -0.020193,0.018885 -0.003184,0.00445 -0.006249,0.00936 -0.009647,0.014961 l -0.002046,0.00338 -4.2e-7,9e-7 c -0.002752,0.00456 -0.005752,0.00953 -0.008928,0.014448 -0.008111,0.012559 -0.0182351,0.02618 -0.0328706,0.038392 -0.0229383,0.01914 -0.054212,0.046873 -0.0711254,0.061983 l 0.0166165,0.033233 0.18202735,-0.047903 c 0.0111564,-0.00293 0.0225801,0.00373 0.025517,0.014885 0.002935,0.011156 -0.003729,0.02258 -0.0148849,0.025517 z m -0.0831431,0.1294563 h 0.0417763 0.001207 0.0542325 0.13255401 0.0267201 l 0.006964,0.020888 H 0.1285255 l 0.006963,-0.020888 z m 0.0522203,-0.2088813 c 0.0173037,0 0.0313322,-0.014028 0.0313322,-0.031332 0,-0.017304 -0.0140285,-0.031332 -0.0313322,-0.031332 -0.0173043,0 -0.0313322,0.014028 -0.0313322,0.031332 0,0.017304 0.0140279,0.031332 0.0313322,0.031332 z"
     fill="#000000"
     id="path2"
     style="stroke-width:0.0208881" />
</svg>
