<?xml version="1.0" encoding="UTF-8" standalone="no"?>
<svg
   id="Layer_1"
   height="16"
   viewBox="0 0 0.75000002 0.74999999"
   width="16"
   data-name="Layer 1"
   version="1.1"
   sodipodi:docname="notification.svg"
   inkscape:version="1.1.2 (0a00cf5339, 2022-02-04)"
   xmlns:inkscape="http://www.inkscape.org/namespaces/inkscape"
   xmlns:sodipodi="http://sodipodi.sourceforge.net/DTD/sodipodi-0.dtd"
   xmlns="http://www.w3.org/2000/svg"
   xmlns:svg="http://www.w3.org/2000/svg">
  <defs
     id="defs7" />
  <sodipodi:namedview
     id="namedview5"
     pagecolor="#ffffff"
     bordercolor="#666666"
     borderopacity="1.0"
     inkscape:pageshadow="2"
     inkscape:pageopacity="0.0"
     inkscape:pagecheckerboard="0"
     showgrid="false"
     width="16px"
     fit-margin-top="0"
     fit-margin-left="0"
     fit-margin-right="0"
     fit-margin-bottom="0"
     inkscape:zoom="1.6992188"
     inkscape:cx="256"
     inkscape:cy="66.501149"
     inkscape:window-width="1920"
     inkscape:window-height="1056"
     inkscape:window-x="0"
     inkscape:window-y="0"
     inkscape:window-maximized="1"
     inkscape:current-layer="Layer_1" />
  <path
     d="M 0.65267669,0.47910862 0.53462592,0.67145053 A 0.1638378,0.16359219 0 0 1 0.41350794,0.74885603 0.16634154,0.16609216 0 0 1 0.39385369,0.75001203 0.16311799,0.16287344 0 0 1 0.2999638,0.72016881 0.14837728,0.14815484 0 0 1 0.0906207,0.51498327 L 0.04946566,0.47395242 A 0.16474541,0.16449843 0 0 1 0.07935392,0.21770486 L 0.25984153,0.10626843 a 0.27725677,0.27684111 0 0 1 0.32320019,0.0172186 l 0.0519212,-0.05184325 a 0.03129663,0.0312497 0 1 1 0.0442534,0.04418708 l -0.0518585,0.051812 a 0.28013605,0.27971608 0 0 1 0.0253189,0.31146576 z M 0.25226773,0.67648173 0.1358756,0.56023284 a 0.0851581,0.08503044 0 0 0 0.0144903,0.10199903 0.08847554,0.08834291 0 0 0 0.10190183,0.0142499 z M 0.5627615,0.18898639 A 0.21553983,0.21521669 0 0 0 0.29307852,0.15939292 L 0.11227795,0.27082936 A 0.10218347,0.10203028 0 0 0 0.09375035,0.42976534 L 0.32190271,0.65760691 A 0.10218347,0.10203028 0 0 0 0.4812964,0.63885709 L 0.5988152,0.44745267 A 0.21710466,0.21677918 0 0 0 0.5627615,0.18883014 Z m 0.0400284,0.56102589 a 0.03129663,0.0312497 0 0 1 -0.0184963,-0.0564995 0.27018373,0.26977867 0 0 0 0.10374837,-0.16896714 0.03129663,0.0312497 0 1 1 0.0611223,0.0134374 0.33487385,0.33437181 0 0 1 -0.12794052,0.20602929 0.03129663,0.0312497 0 0 1 -0.0184338,0.006 z M 0.0311571,0.17936148 A 0.03129663,0.0312497 0 0 1 0.00611982,0.12954945 0.33462348,0.33412181 0 0 1 0.21621402,6.4443584e-4 0.03130288,0.03125595 0 1 1 0.22873268,0.06189385 0.27027762,0.26987242 0 0 0 0.0561944,0.16670535 0.03129663,0.0312497 0 0 1 0.0311571,0.17936148 Z"
     id="path2"
     style="fill:#f0f8ff;stroke-width:0.0312732;fill-opacity:1" />
</svg>
