<?xml version="1.0" encoding="UTF-8" standalone="no"?>
<!-- Uploaded to: SVG Repo, www.svgrepo.com, Generator: SVG Repo Mixer Tools -->

<svg
   width="16"
   height="16"
   viewBox="0 0 0.4 0.4"
   version="1.1"
   id="svg12"
   sodipodi:docname="profile-image-round-1326-svgrepo-com.svg"
   inkscape:version="1.1.2 (0a00cf5339, 2022-02-04)"
   xmlns:inkscape="http://www.inkscape.org/namespaces/inkscape"
   xmlns:sodipodi="http://sodipodi.sourceforge.net/DTD/sodipodi-0.dtd"
   xmlns="http://www.w3.org/2000/svg"
   xmlns:svg="http://www.w3.org/2000/svg">
  <sodipodi:namedview
     id="namedview14"
     pagecolor="#ffffff"
     bordercolor="#666666"
     borderopacity="1.0"
     inkscape:pageshadow="2"
     inkscape:pageopacity="0.0"
     inkscape:pagecheckerboard="0"
     showgrid="false"
     inkscape:zoom="1.0875"
     inkscape:cx="399.08046"
     inkscape:cy="179.31034"
     inkscape:window-width="1920"
     inkscape:window-height="1056"
     inkscape:window-x="0"
     inkscape:window-y="0"
     inkscape:window-maximized="1"
     inkscape:current-layer="svg12" />
  <title
     id="title2">profile_image_round [#1326]</title>
  <desc
     id="desc4">Created with Sketch.</desc>
  <defs
     id="defs6" />
  <g
     id="Page-1"
     stroke="none"
     stroke-width="1"
     fill="none"
     fill-rule="evenodd"
     transform="scale(0.02)">
    <g
       id="Dribbble-Light-Preview"
       transform="translate(-380,-2199)"
       fill="#000000">
      <g
         id="icons"
         transform="translate(56,160)">
        <path
           d="m 342,2055.615 c 0,0.107 -0.03,0.206 -0.061,0.303 -0.216,-2.944 -2.021,-5.436 -4.564,-6.635 0.993,-0.914 1.625,-2.212 1.625,-3.668 0,-2.081 -1.272,-3.862 -3.08,-4.615 H 341 c 0.552,0 1,0.063 1,0.615 z m -2.037,1.385 h -11.988 c -0.001,0 -0.006,-0.259 -0.006,-0.299 0,-3.096 2.357,-5.741 5.37,-6.056 0.661,0.088 0.916,-0.023 1.284,-0.069 3.002,0.326 5.346,3.047 5.346,6.134 0,0.04 -0.005,0.29 -0.006,0.29 z M 326,2055.615 v -14 c 0,-0.552 0.448,-0.615 1,-0.615 h 5.08 c -1.808,0.753 -3.08,2.534 -3.08,4.615 0,1.445 0.622,2.736 1.602,3.649 -2.495,1.158 -4.295,3.556 -4.59,6.411 -10e-4,-0.021 -0.012,-0.039 -0.012,-0.06 z m 11,-10 c 0,1.44 -1.021,2.645 -2.377,2.933 -0.59,-0.048 -0.755,-0.04 -1.255,0 -1.351,-0.291 -2.368,-1.493 -2.368,-2.93 0,-1.654 1.346,-3 3,-3 1.654,0 3,1.346 3,3 z m 5,-6.615 h -16 c -1.105,0 -2,0.895 -2,2 v 16 c 0,1.104 0.895,2 2,2 h 16 c 1.105,0 2,-0.896 2,-2 v -16 c 0,-1.105 -0.895,-2 -2,-2 z"
           id="profile_image_round-[#1326]" />
      </g>
    </g>
  </g>
</svg>
