<?xml version="1.0" encoding="UTF-8" standalone="no"?>
<!-- Uploaded to: SVG Repo, www.svgrepo.com, Generator: SVG Repo Mixer Tools -->

<svg
   width="17.781151"
   height="16.000511"
   viewBox="0 0 0.53343452 0.48001534"
   fill="none"
   version="1.1"
   id="svg4"
   sodipodi:docname="book-open-svgrepo-com.svg"
   inkscape:version="1.1.2 (0a00cf5339, 2022-02-04)"
   xmlns:inkscape="http://www.inkscape.org/namespaces/inkscape"
   xmlns:sodipodi="http://sodipodi.sourceforge.net/DTD/sodipodi-0.dtd"
   xmlns="http://www.w3.org/2000/svg"
   xmlns:svg="http://www.w3.org/2000/svg">
  <defs
     id="defs8" />
  <sodipodi:namedview
     id="namedview6"
     pagecolor="#ffffff"
     bordercolor="#666666"
     borderopacity="1.0"
     inkscape:pageshadow="2"
     inkscape:pageopacity="0.0"
     inkscape:pagecheckerboard="0"
     showgrid="false"
     inkscape:zoom="1.0875"
     inkscape:cx="333.7931"
     inkscape:cy="299.77011"
     inkscape:window-width="1920"
     inkscape:window-height="1056"
     inkscape:window-x="0"
     inkscape:window-y="0"
     inkscape:window-maximized="1"
     inkscape:current-layer="svg4" />
  <path
     d="m 0.26671692,0.19739413 v 0.2559445 m 0,-0.2559445 c 0,-0.059726 0,-0.089589 -0.011624,-0.1124012 -0.010225,-0.020066 -0.026538,-0.036381 -0.046604,-0.046605 -0.022812,-0.011623 -0.052675,-0.011623 -0.1124013,-0.011623 h -0.026661 c -0.014931,0 -0.022397,0 -0.0281,0.00291 -0.00502,0.00256 -0.0091,0.00663 -0.011651,0.011651 -0.00291,0.0057 -0.00291,0.013169 -0.00291,0.0281 v 0.2879376 c 0,0.014933 0,0.022398 0.00291,0.028101 0.00256,0.00502 0.00663,0.00909 0.011651,0.011651 0.0057,0.00291 0.013169,0.00291 0.0281,0.00291 h 0.078561 c 0.014402,0 0.021603,0 0.028566,0.00124 0.00618,0.0011 0.01221,0.00292 0.017963,0.00544 0.00648,0.00283 0.012474,0.00682 0.024456,0.014813 l 0.047744,0.031828 m 0,-0.2559445 c 0,-0.059726 0,-0.089589 0.011624,-0.1124012 0.010224,-0.020066 0.026538,-0.036381 0.046603,-0.046605 0.022814,-0.011623 0.052677,-0.011623 0.1124023,-0.011623 h 0.026661 c 0.014933,0 0.022398,0 0.028101,0.00291 0.00502,0.00256 0.00909,0.00663 0.011651,0.011651 0.00291,0.0057 0.00291,0.013169 0.00291,0.0281 v 0.2879376 c 0,0.014933 0,0.022398 -0.00291,0.028101 -0.00256,0.00502 -0.00663,0.00909 -0.011651,0.011651 -0.0057,0.00291 -0.013168,0.00291 -0.028101,0.00291 h -0.078562 c -0.014402,0 -0.021603,0 -0.028564,0.00124 -0.00618,0.0011 -0.012211,0.00292 -0.017964,0.00544 -0.00648,0.00283 -0.012475,0.00682 -0.024456,0.014813 l -0.047744,0.031828"
     stroke="#000000"
     stroke-width="0.0533218"
     stroke-linecap="round"
     stroke-linejoin="round"
     id="path2" />
</svg>
