<?xml version="1.0" encoding="UTF-8" standalone="no"?>
<!-- Uploaded to: SVG Repo, www.svgrepo.com, Generator: SVG Repo Mixer Tools -->

<svg
   width="15.55348"
   height="15.999479"
   viewBox="0 0 0.4666044 0.47998438"
   fill="none"
   version="1.1"
   id="svg8"
   sodipodi:docname="gear-settings-svgrepo-com.svg"
   inkscape:version="1.1.2 (0a00cf5339, 2022-02-04)"
   xmlns:inkscape="http://www.inkscape.org/namespaces/inkscape"
   xmlns:sodipodi="http://sodipodi.sourceforge.net/DTD/sodipodi-0.dtd"
   xmlns="http://www.w3.org/2000/svg"
   xmlns:svg="http://www.w3.org/2000/svg">
  <defs
     id="defs12" />
  <sodipodi:namedview
     id="namedview10"
     pagecolor="#ffffff"
     bordercolor="#666666"
     borderopacity="1.0"
     inkscape:pageshadow="2"
     inkscape:pageopacity="0.0"
     inkscape:pagecheckerboard="0"
     showgrid="false"
     inkscape:zoom="1.0875"
     inkscape:cx="356.78161"
     inkscape:cy="366.89655"
     inkscape:window-width="1920"
     inkscape:window-height="1056"
     inkscape:window-x="0"
     inkscape:window-y="0"
     inkscape:window-maximized="1"
     inkscape:current-layer="svg8" />
  <path
     fill-rule="evenodd"
     clip-rule="evenodd"
     d="m 0.23331141,0.15272765 c -0.0482,0 -0.087273,0.039073 -0.087273,0.087272 0,0.048201 0.039073,0.087273 0.087273,0.087273 0.048199,0 0.087273,-0.039072 0.087273,-0.087273 0,-0.048199 -0.039074,-0.087272 -0.087273,-0.087272 z m -0.043637,0.087272 c 0,-0.024098 0.019536,-0.043636 0.043637,-0.043636 0.0241,0 0.043636,0.019538 0.043636,0.043636 0,0.0241 -0.019536,0.043636 -0.043636,0.043636 -0.0241,0 -0.043637,-0.019536 -0.043637,-0.043636 z"
     fill="#0f1729"
     id="path2"
     style="stroke-width:0.0218182" />
  <path
     fill-rule="evenodd"
     clip-rule="evenodd"
     d="m 0.23331141,0.15272765 c -0.0482,0 -0.087273,0.039073 -0.087273,0.087272 0,0.048201 0.039073,0.087273 0.087273,0.087273 0.048199,0 0.087273,-0.039072 0.087273,-0.087273 0,-0.048199 -0.039074,-0.087272 -0.087273,-0.087272 z m -0.043637,0.087272 c 0,-0.024098 0.019536,-0.043636 0.043637,-0.043636 0.0241,0 0.043636,0.019538 0.043636,0.043636 0,0.0241 -0.019536,0.043636 -0.043636,0.043636 -0.0241,0 -0.043637,-0.019536 -0.043637,-0.043636 z"
     fill="#0f1729"
     id="path4"
     style="stroke-width:0.0218182" />
  <path
     fill-rule="evenodd"
     clip-rule="evenodd"
     d="m 0.20641611,3.7285231e-4 c 0.00491,-3.765600007e-4 0.010431,-3.743500007e-4 0.01493,-3.7261000073e-4 h 0.02393 c 0.0045,-1.73999997e-6 0.010017,-3.94999997e-6 0.01493,3.7261000073e-4 0.00581,4.451e-4 0.013857,0.001579998 0.022488,0.005499998 0.010911,0.00496 0.02025,0.012829 0.026996,0.022737 0.00534,0.00784 0.00782,0.015579 0.00925,0.021225 0.00121,0.00478 0.00214,0.010215 0.0029,0.014649 l 0.00309,0.017905 6.11e-5,3.34e-5 c 7.593e-4,4.198e-4 0.00151,8.446e-4 0.00227,0.00127 l 5.67e-5,3.14e-5 0.020442,-0.0074 c 0.00415,-0.0015 0.00925,-0.00335 0.01392,-0.00465 0.00553,-0.00154 0.013351,-0.0032 0.022649,-0.00251 0.011777,8.667e-4 0.023099,0.0049 0.032769,0.011681 0.00763,0.00535 0.012641,0.01158 0.015951,0.016274 0.0028,0.00397 0.00558,0.00862 0.00784,0.01241 l 0.010948,0.018322 c 0.0024,0.004 0.00531,0.00888 0.00757,0.013423 0.00265,0.00535 0.00589,0.013079 0.00687,0.022809 0.00123,0.012252 -0.00102,0.024603 -0.00649,0.035634 -0.00435,0.00876 -0.010106,0.014854 -0.014474,0.018923 -0.00371,0.00345 -0.00816,0.00699 -0.011812,0.00989 l -0.014738,0.011463 0.014738,0.011463 c 0.00365,0.0029 0.0081,0.00644 0.011812,0.00989 0.00437,0.00407 0.010128,0.010161 0.014472,0.018921 0.00547,0.011031 0.00772,0.023383 0.00649,0.035636 -9.774e-4,0.00973 -0.00422,0.017461 -0.00687,0.022809 -0.00225,0.00454 -0.00517,0.00942 -0.00757,0.013423 l -0.010953,0.018325 c -0.00226,0.00379 -0.00504,0.00844 -0.00784,0.012406 -0.00331,0.0047 -0.00832,0.010922 -0.015953,0.016274 -0.00967,0.00678 -0.020991,0.010815 -0.032767,0.011681 -0.0093,6.851e-4 -0.017116,-9.731e-4 -0.022649,-0.00251 -0.00468,-0.0013 -0.00977,-0.00315 -0.013922,-0.00465 l -0.020442,-0.0074 -5.45e-5,3.28e-5 c -7.527e-4,4.298e-4 -0.00151,8.531e-4 -0.00227,0.00127 l -6.11e-5,3.27e-5 -0.00309,0.017904 c -7.615e-4,0.00443 -0.0017,0.00987 -0.0029,0.014649 -0.00143,0.00565 -0.00391,0.013388 -0.00925,0.021227 -0.00675,0.00991 -0.016084,0.017773 -0.026996,0.022737 -0.00863,0.00393 -0.01668,0.00506 -0.022488,0.0055 -0.00492,3.753e-4 -0.010431,3.731e-4 -0.01493,3.709e-4 h -0.02393 c -0.0045,2.2e-6 -0.010017,4.4e-6 -0.01493,-3.709e-4 -0.00581,-4.451e-4 -0.013857,-0.00158 -0.022489,-0.0055 -0.010911,-0.00496 -0.020249,-0.012829 -0.026995,-0.022737 -0.00534,-0.00784 -0.00782,-0.01558 -0.00925,-0.021227 -0.00121,-0.00478 -0.00214,-0.010215 -0.00291,-0.014649 l -0.00309,-0.017904 -6.04e-5,-3.27e-5 c -7.595e-4,-4.211e-4 -0.00152,-8.444e-4 -0.00227,-0.00128 l -5.54e-5,-3.06e-5 -0.02044,0.0074 c -0.00415,0.0015 -0.00925,0.00335 -0.013921,0.00465 -0.00553,0.00154 -0.01335,0.0032 -0.022649,0.00251 -0.011776,-8.662e-4 -0.023099,-0.0049 -0.032768,-0.011681 -0.00764,-0.00535 -0.012641,-0.011579 -0.015952,-0.016274 -0.0028,-0.00396 -0.00558,-0.00862 -0.00784,-0.012408 l -0.010951,-0.018323 c -0.00239,-0.004 -0.00531,-0.00888 -0.00757,-0.013423 -0.00265,-0.00535 -0.00589,-0.01308 -0.006870005,-0.022809 -0.00123,-0.012253 0.001020005,-0.024604 0.006490005,-0.035636 0.00435,-0.00876 0.010105,-0.014854 0.014472,-0.018921 0.00371,-0.00346 0.00816,-0.00699 0.011813,-0.00989 l 0.014268,-0.011346 v -2.334e-4 l -0.014269,-0.011348 c -0.00365,-0.0029 -0.0081,-0.00644 -0.011813,-0.00989 -0.00437,-0.00407 -0.010127,-0.010163 -0.014472,-0.018923 -0.00547,-0.011031 -0.007720005,-0.023382 -0.006490005,-0.035634 9.7830453e-4,-0.00973 0.004220005,-0.017463 0.006870005,-0.022809 0.00225,-0.00454 0.00517,-0.00942 0.00757,-0.013423 l 0.010951,-0.018323 c 0.00226,-0.00379 0.00504,-0.00844 0.00784,-0.012409 0.00331,-0.00469 0.00832,-0.010921 0.015953,-0.016273 0.00967,-0.00678 0.020992,-0.010814 0.032768,-0.011681 0.0093,-6.845e-4 0.017116,9.717e-4 0.022649,0.00251 0.00467,0.0013 0.00977,0.00315 0.013921,0.00465 l 0.020441,0.0074 5.52e-5,-3.16e-5 c 7.528e-4,-4.298e-4 0.00151,-8.548e-4 0.00227,-0.00127 l 6.04e-5,-3.34e-5 0.00309,-0.017905 c 7.632e-4,-0.00443 0.0017,-0.00987 0.00291,-0.014649 0.00143,-0.00565 0.00391,-0.013387 0.00925,-0.021225 0.00675,-0.00991 0.016085,-0.017773 0.026995,-0.022737 0.00863,-0.00393 0.016681,-0.005059998 0.022489,-0.005499998 z m 0.072578,0.0724189977 c -0.00181,-0.010472 -0.00271,-0.015707 -0.00537,-0.019617 -0.00225,-0.0033 -0.00536,-0.00592 -0.009,-0.00758 -0.00431,-0.00196 -0.00962,-0.00196 -0.020245,-0.00196 h -0.022137 c -0.010625,0 -0.01594,0 -0.020245,0.00196 -0.00364,0.00165 -0.00675,0.00428 -0.009,0.00758 -0.00266,0.00391 -0.00357,0.00915 -0.00537,0.019617 l -0.0034,0.019731 c -0.00121,0.00704 -0.00182,0.010561 -0.00311,0.013267 -0.00126,0.00266 -0.0023,0.00411 -0.00439,0.00617 -0.00213,0.0021 -0.00608,0.00429 -0.013982,0.00865 -5.825e-4,3.22e-4 -0.00116,6.478e-4 -0.00174,9.774e-4 -0.00755,0.00431 -0.011332,0.00647 -0.014138,0.0072 -0.00275,7.173e-4 -0.00447,8.651e-4 -0.00731,6.288e-4 -0.00289,-2.405e-4 -0.00612,-0.00141 -0.012597,-0.00375 l -0.022114,-0.008 c -0.0098,-0.00355 -0.014702,-0.00532 -0.019348,-0.00498 -0.00393,2.886e-4 -0.0077,0.00163 -0.010923,0.00389 -0.00381,0.00267 -0.00649,0.00715 -0.011836,0.016095 l -0.010023,0.01677 c -0.00565,0.00945 -0.00847,0.014169 -0.00895,0.019006 -4.106e-4,0.00408 3.391e-4,0.0082 0.00216,0.011878 0.00216,0.00436 0.00647,0.00778 0.01508,0.014629 l 0.015816,0.012578 c 0.00549,0.00437 0.00824,0.00655 0.00996,0.0089 0.00186,0.00253 0.00266,0.00418 0.00348,0.00721 7.615e-4,0.00281 7.615e-4,0.00732 7.615e-4,0.016355 0,0.00903 0,0.013549 -7.615e-4,0.016357 -8.229e-4,0.00303 -0.00162,0.00468 -0.00348,0.00721 -0.00172,0.00234 -0.00447,0.00453 -0.00996,0.0089 l -0.015814,0.012576 c -0.00861,0.00685 -0.012919,0.010274 -0.01508,0.014631 -0.00182,0.00368 -0.00257,0.00779 -0.00216,0.011878 4.866e-4,0.00484 0.00331,0.00956 0.00895,0.019006 l 0.010023,0.01677 c 0.00535,0.00895 0.00802,0.013422 0.011836,0.016095 0.00322,0.00226 0.007,0.0036 0.010923,0.00389 0.00465,3.403e-4 0.00955,-0.00143 0.019348,-0.00498 l 0.022114,-0.008 c 0.00647,-0.00234 0.00971,-0.00351 0.012597,-0.00375 0.00284,-2.356e-4 0.00455,-8.94e-5 0.00731,6.284e-4 0.00281,7.309e-4 0.00658,0.00289 0.014137,0.0072 5.773e-4,3.294e-4 0.00116,6.567e-4 0.00174,9.774e-4 0.0079,0.00437 0.011847,0.00655 0.013981,0.00865 0.0021,0.00206 0.00313,0.00352 0.00439,0.00617 0.00129,0.00271 0.00189,0.00622 0.00311,0.013265 l 0.0034,0.01973 c 0.00181,0.010473 0.00271,0.015709 0.00537,0.019619 0.00225,0.0033 0.00536,0.00592 0.009,0.00758 0.0043,0.00196 0.00962,0.00196 0.020245,0.00196 h 0.022137 c 0.010625,0 0.015938,0 0.020245,-0.00196 0.00364,-0.00165 0.00675,-0.00428 0.009,-0.00758 0.00266,-0.00391 0.00357,-0.00915 0.00537,-0.019619 l 0.00341,-0.01973 c 0.00121,-0.00704 0.00182,-0.01056 0.00311,-0.013265 0.00126,-0.00266 0.0023,-0.00411 0.00439,-0.00617 0.00214,-0.0021 0.00609,-0.00429 0.013981,-0.00865 5.825e-4,-3.207e-4 0.00116,-6.48e-4 0.00174,-9.774e-4 0.00756,-0.00431 0.011332,-0.00647 0.014138,-0.0072 0.00276,-7.178e-4 0.00447,-8.64e-4 0.00731,-6.284e-4 0.00289,2.4e-4 0.00612,0.00141 0.012596,0.00375 l 0.022115,0.008 c 0.0098,0.00355 0.014703,0.00532 0.019348,0.00498 0.00393,-2.902e-4 0.0077,-0.00163 0.010922,-0.00389 0.00381,-0.00267 0.00649,-0.00715 0.011836,-0.016095 l 0.010023,-0.01677 c 0.00564,-0.00945 0.00847,-0.014169 0.00895,-0.019006 4.101e-4,-0.00408 -3.404e-4,-0.0082 -0.00216,-0.011878 -0.00216,-0.00435 -0.00647,-0.00778 -0.015078,-0.014631 l -0.015814,-0.012576 c -0.0055,-0.00437 -0.00824,-0.00655 -0.00996,-0.0089 -0.00186,-0.00253 -0.00266,-0.00418 -0.00348,-0.00721 -7.615e-4,-0.00281 -7.615e-4,-0.00732 -7.615e-4,-0.016357 0,-0.00903 0,-0.013549 7.615e-4,-0.016355 8.247e-4,-0.00303 0.00162,-0.00468 0.00348,-0.00721 0.00172,-0.00234 0.00447,-0.00453 0.00996,-0.0089 l 0.015816,-0.012578 c 0.00861,-0.00685 0.012921,-0.010274 0.015081,-0.01463 0.00182,-0.00368 0.00257,-0.00779 0.00216,-0.011878 -4.866e-4,-0.00484 -0.00331,-0.00956 -0.00895,-0.019006 l -0.010023,-0.01677 c -0.00535,-0.00895 -0.00802,-0.013421 -0.011834,-0.016095 -0.00322,-0.00226 -0.007,-0.0036 -0.010924,-0.00389 -0.00465,-3.418e-4 -0.00955,0.00143 -0.019348,0.00498 l -0.022113,0.008 c -0.00647,0.00234 -0.00971,0.00351 -0.012598,0.00375 -0.00284,2.363e-4 -0.00455,8.86e-5 -0.00731,-6.288e-4 -0.00281,-7.304e-4 -0.00658,-0.00289 -0.014136,-0.0072 -5.781e-4,-3.296e-4 -0.00116,-6.554e-4 -0.00174,-9.774e-4 -0.0079,-0.00437 -0.011847,-0.00655 -0.013983,-0.00865 -0.00209,-0.00206 -0.00313,-0.00352 -0.00439,-0.00617 -0.00129,-0.00271 -0.00189,-0.00623 -0.00311,-0.013267 z"
     fill="#0F1729"
     id="path6"
     style="fill:#000000;stroke-width:0.0218182" />
</svg>
