<?xml version="1.0" encoding="UTF-8" standalone="no"?>
<!-- Uploaded to: SVG Repo, www.svgrepo.com, Generator: SVG Repo Mixer Tools -->

<svg
   width="16"
   height="16"
   viewBox="0 0 0.48 0.48"
   fill="none"
   version="1.1"
   id="svg4"
   sodipodi:docname="share-android-svgrepo-com.svg"
   inkscape:version="1.1.2 (0a00cf5339, 2022-02-04)"
   xmlns:inkscape="http://www.inkscape.org/namespaces/inkscape"
   xmlns:sodipodi="http://sodipodi.sourceforge.net/DTD/sodipodi-0.dtd"
   xmlns="http://www.w3.org/2000/svg"
   xmlns:svg="http://www.w3.org/2000/svg">
  <defs
     id="defs8" />
  <sodipodi:namedview
     id="namedview6"
     pagecolor="#ffffff"
     bordercolor="#666666"
     borderopacity="1.0"
     inkscape:pageshadow="2"
     inkscape:pageopacity="0.0"
     inkscape:pagecheckerboard="0"
     showgrid="false"
     inkscape:zoom="17.4"
     inkscape:cx="22.931035"
     inkscape:cy="13.275862"
     inkscape:window-width="1920"
     inkscape:window-height="1056"
     inkscape:window-x="0"
     inkscape:window-y="0"
     inkscape:window-maximized="1"
     inkscape:current-layer="Communication / Share_Android" />
  <g
     id="Communication / Share_Android"
     transform="matrix(0.024,0,0,0.024,-0.048,-0.048)"
     style="fill:none">
    <path
       id="Vector"
       d="m 9,13.5 6,3 m 0,-9 -6,3 M 18,21 c -1.6569,0 -3,-1.3431 -3,-3 0,-1.6569 1.3431,-3 3,-3 1.6569,0 3,1.3431 3,3 0,1.6569 -1.3431,3 -3,3 z M 6,15 C 4.34315,15 3,13.6569 3,12 3,10.3431 4.34315,9 6,9 c 1.65685,0 3,1.3431 3,3 0,1.6569 -1.34315,3 -3,3 z M 18,9 c -1.6569,0 -3,-1.34315 -3,-3 0,-1.65685 1.3431,-3 3,-3 1.6569,0 3,1.34315 3,3 0,1.65685 -1.3431,3 -3,3 z"
       stroke="#000000"
       stroke-width="2"
       stroke-linecap="round"
       stroke-linejoin="round"
       style="fill:none;fill-rule:nonzero;stroke:#f0f8ff;stroke-opacity:1" />
  </g>
</svg>
