<?xml version="1.0" encoding="UTF-8" standalone="no"?>
<!-- Uploaded to: SVG Repo, www.svgrepo.com, Generator: SVG Repo Mixer Tools -->

<svg
   width="15.978852"
   height="16.000046"
   viewBox="0 0 0.47936557 0.48000137"
   fill="none"
   version="1.1"
   id="svg4"
   sodipodi:docname="quill-svgrepo-com.svg"
   inkscape:version="1.1.2 (0a00cf5339, 2022-02-04)"
   xmlns:inkscape="http://www.inkscape.org/namespaces/inkscape"
   xmlns:sodipodi="http://sodipodi.sourceforge.net/DTD/sodipodi-0.dtd"
   xmlns="http://www.w3.org/2000/svg"
   xmlns:svg="http://www.w3.org/2000/svg">
  <defs
     id="defs8" />
  <sodipodi:namedview
     id="namedview6"
     pagecolor="#ffffff"
     bordercolor="#666666"
     borderopacity="1.0"
     inkscape:pageshadow="2"
     inkscape:pageopacity="0.0"
     inkscape:pagecheckerboard="0"
     showgrid="false"
     inkscape:zoom="1.0875"
     inkscape:cx="399.08046"
     inkscape:cy="366.89655"
     inkscape:window-width="1920"
     inkscape:window-height="1056"
     inkscape:window-x="0"
     inkscape:window-y="0"
     inkscape:window-maximized="1"
     inkscape:current-layer="svg4" />
  <path
     fill-rule="evenodd"
     clip-rule="evenodd"
     d="m 0.47553593,0.01563462 c -0.002813,-0.010842 -0.013682,-0.0175317 -0.024628,-0.0151559966 C 0.18021816,0.05921962 0.05372774,0.26647462 7.9114728e-4,0.45344562 c -0.002555197,0.00902 0.001224403,0.018645 0.009239203,0.023518 0.0036757,0.00224 0.007828,0.00322 0.011906,0.00301 0.0049001,-0.023716 0.02613182,-0.041584 0.05162295,-0.041712 l 0.0060248,-0.00566 c 0.0083999,-0.00789 0.0088113,-0.021101 9.1888e-4,-0.029499 -0.0045278,-0.00482 -0.01080534,-0.00701 -0.01692069,-0.00651 l 8.1056e-4,-0.0021 c 6.745e-4,-9.537e-4 0.0012776,-0.00198 0.0017985,-0.00307 0.0042778,-0.00894 0.0090644,-0.014041 0.01386896,-0.017267 0.004946,-0.00332 0.01121312,-0.00553 0.01968881,-0.00674 0.008654,-0.00123 0.018709,-0.00129 0.0308713,-8.703e-4 0.003939,1.357e-4 0.008221,3.277e-4 0.0127145,5.301e-4 h 1.67e-6 c 0.008589,3.882e-4 0.0179458,8.097e-4 0.0271392,9.266e-4 0.0289759,3.756e-4 0.0624828,-0.00199 0.0973075,-0.017349 0.0350021,-0.015437 0.0695765,-0.043208 0.10230801,-0.090807 0.005073,-0.00738 0.004875,-0.017173 -4.9669e-4,-0.024342 -6.3234e-4,-8.41e-4 -0.001319,-0.00163 -0.002051,-0.00235 0.021821,-0.012353 0.0409938,-0.029067 0.0568086,-0.047804 0.0211657,-0.025078 0.037062,-0.054468 0.0461861,-0.083735 0.009053,-0.029047 0.0118768,-0.059451 0.004998,-0.085985 z m -0.34348492,0.309199 c -0.0122059,-4.174e-4 -0.0248569,-5.009e-4 -0.0369451,0.00109 0.0639712,-0.1243022 0.17049436,-0.2351581 0.34251658,-0.2794146 9.808e-5,0.01285 -0.002158,0.027364 -0.006933,0.042685 -0.007463,0.023935 -0.0206482,0.048398 -0.0382348,0.069236 -0.0352734,0.041793 -0.085289,0.066263 -0.14096021,0.049279 -0.008337,-0.00254 -0.0173779,3.631e-4 -0.0226725,0.00729 -0.005292,0.00693 -0.005722,0.016412 -0.001079,0.023789 0.0134295,0.021331 0.0405242,0.035943 0.0749503,0.037479 -0.0177515,0.017587 -0.0351503,0.028873 -0.051754,0.036196 -0.0269779,0.0119 -0.0536348,0.014143 -0.079925,0.013803 -0.008633,-1.106e-4 -0.0166214,-4.738e-4 -0.0247004,-8.411e-4 h -2e-7 c -0.004677,-2.128e-4 -0.009384,-4.278e-4 -0.014263,-5.947e-4 z"
     fill="#000000"
     id="path2"
     style="stroke-width:0.0208694" />
</svg>
