<?xml version="1.0" encoding="UTF-8" standalone="no"?>
<!-- Uploaded to: SVG Repo, www.svgrepo.com, Generator: SVG Repo Mixer Tools -->

<svg
   width="19.65715"
   height="15.999844"
   viewBox="0 0 0.58971451 0.47999531"
   fill="none"
   version="1.1"
   id="svg4"
   sodipodi:docname="support.svg"
   inkscape:version="1.1.2 (0a00cf5339, 2022-02-04)"
   xmlns:inkscape="http://www.inkscape.org/namespaces/inkscape"
   xmlns:sodipodi="http://sodipodi.sourceforge.net/DTD/sodipodi-0.dtd"
   xmlns="http://www.w3.org/2000/svg"
   xmlns:svg="http://www.w3.org/2000/svg">
  <defs
     id="defs8" />
  <sodipodi:namedview
     id="namedview6"
     pagecolor="#ffffff"
     bordercolor="#666666"
     borderopacity="1.0"
     inkscape:pageshadow="2"
     inkscape:pageopacity="0.0"
     inkscape:pagecheckerboard="0"
     showgrid="false"
     inkscape:zoom="1.0875"
     inkscape:cx="358.62069"
     inkscape:cy="291.49425"
     inkscape:window-width="1920"
     inkscape:window-height="1056"
     inkscape:window-x="0"
     inkscape:window-y="0"
     inkscape:window-maximized="1"
     inkscape:current-layer="svg4" />
  <path
     fill-rule="evenodd"
     clip-rule="evenodd"
     d="m 0.23845181,1.4213427e-8 h 0.1128088 c 0.050408,-5.99999997e-7 0.090333,-8.99999997e-7 0.1215799,0.0041999957866 0.032157,0.00432 0.058187,0.013433 0.078715,0.033959 0.020525,0.020527 0.029634,0.046555 0.033959,0.078713 0.0042,0.031247 0.0042,0.071172 0.0042,0.1215804 v 0.00309 c 0,0.050408 0,0.090333 -0.0042,0.1215799 -0.00433,0.032157 -0.013435,0.058187 -0.033959,0.078714 -0.020527,0.020525 -0.046557,0.029634 -0.078715,0.033959 -0.031247,0.0042 -0.071172,0.0042 -0.1215799,0.0042 h -0.1128085 c -0.050407,0 -0.090333,0 -0.1215801,-0.0042 -0.032158,-0.00433 -0.058186,-0.013435 -0.078713,-0.033959 -0.020527,-0.020528 -0.029636,-0.046557 -0.033959,-0.078714 C 1.4213428e-8,0.33187531 1.4213428e-8,0.29195031 1.4213428e-8,0.24154241 v -0.00309 C -5.8578657e-7,0.18804441 -8.8578657e-7,0.14811941 0.00420001,0.11687201 c 0.00432,-0.032158 0.013433,-0.058186 0.033959,-0.078713 0.020527,-0.020526 0.046555,-0.029636 0.078713,-0.033959 C 0.14811901,1.4213427e-8 0.18804501,1.4213427e-8 0.23845181,1.4213427e-8 Z M 0.12235411,0.04497601 c -0.027596,0.00371 -0.043495,0.010668 -0.055103,0.022276 -0.011608,0.011608 -0.018566,0.027507 -0.022276,0.055103 -0.00379,0.028187 -0.00383,0.065345 -0.00383,0.1176453 0,0.052301 4.36e-5,0.089458 0.00383,0.1176466 0.00371,0.027593 0.010668,0.043493 0.022276,0.055101 0.011608,0.011608 0.027507,0.018566 0.055103,0.022275 0.028187,0.00379 0.065344,0.00383 0.1176453,0.00383 h 0.1097142 c 0.052301,0 0.089458,-4.39e-5 0.1176467,-0.00383 0.027593,-0.00371 0.043493,-0.010667 0.055101,-0.022275 0.011608,-0.011608 0.018566,-0.027508 0.022275,-0.055101 0.00379,-0.028188 0.00383,-0.065346 0.00383,-0.1176466 0,-0.052301 -4.39e-5,-0.089458 -0.00383,-0.1176453 -0.00371,-0.027596 -0.010667,-0.043495 -0.022275,-0.055103 -0.011608,-0.011608 -0.027508,-0.018566 -0.055101,-0.022276 -0.028188,-0.00379 -0.065346,-0.00383 -0.1176467,-0.00383 h -0.1097142 c -0.052301,0 -0.089458,4.36e-5 -0.1176453,0.00383 z m -0.00787,0.07214 c 0.00727,-0.00873 0.020245,-0.00991 0.028973,-0.00263 l 0.059215,0.049346 c 0.02559,0.021326 0.043356,0.036082 0.058356,0.045729 0.014518,0.00934 0.024365,0.012475 0.03383,0.012475 0.00947,0 0.019313,-0.00314 0.03383,-0.012475 0.015001,-0.00965 0.032766,-0.024403 0.058357,-0.045729 l 0.059216,-0.049346 c 0.00873,-0.00727 0.021699,-0.00609 0.028973,0.00263 0.00727,0.00873 0.00609,0.0217 -0.00264,0.028973 l -0.060247,0.050206 c -0.02431,0.020259 -0.044015,0.03668 -0.061407,0.047866 -0.018117,0.011652 -0.035759,0.019013 -0.056086,0.019013 -0.020327,0 -0.037969,-0.00736 -0.056086,-0.019013 -0.017391,-0.011185 -0.037096,-0.027607 -0.061408,-0.047866 l -0.060247,-0.050206 c -0.00873,-0.00727 -0.00991,-0.020245 -0.002629,-0.028973 z"
     fill="#1C274C"
     id="path2"
     style="fill:#000000;stroke-width:0.0274286" />
</svg>
